# File created by Blade
# Date/Time:  Tue Jan 27 18:55:59 2015
#---------------------------------------------------------
:version 1.10
:name HOM
:units
  mass 1.0
  length 1.000000
  angle deg
:documentation
     Acclaim Skeleton File
:root
   axis xyz
   order TX TY TZ RX RY RZ
   position 0.000000 0.000000 0.000000
   orientation 0 0 0
:bonedata
   begin
      id 1
      name Spine_dum
      direction 0.000000 1.000000 0.000000
      length 5.195262
      axis 0.0 0.0 0.0 xyz
   end
   begin
      id 2
      name LeftUpLeg_dum
      direction 1.000000 0.000000 0.000000
      length 3.351363
      axis 0.0 0.0 0.0 xyz
   end
   begin
      id 3
      name RightUpLeg_dum
      direction -1.000000 0.000000 0.000000
      length 3.351363
      axis 0.0 0.0 0.0 xyz
   end
   begin
      id 4
      name Spine
      direction 0.000000 1.000000 0.000000
      length 0.000000
      axis 0.0 0.0 0.0 xyz
      dof rx ry rz
   end
   begin
      id 5
      name Spine_dum1
      direction 0.000000 1.000000 0.000000
      length 15.653875
      axis 0.0 0.0 0.0 xyz
   end
   begin
      id 6
      name Spine_dum2
      direction 0.000000 1.000000 0.000000
      length 10.329768
      axis 0.0 0.0 0.0 xyz
   end
   begin
      id 7
      name Spine_dum3
      direction 0.000000 1.000000 0.000000
      length 10.329768
      axis 0.0 0.0 0.0 xyz
   end
   begin
      id 8
      name Head
      direction 0.000000 1.000000 0.000000
      length 4.527550
      axis 0.0 0.0 0.0 xyz
      dof rx ry rz
   end
   begin
      id 9
      name LeftShoulder
      direction 1.000000 0.000000 0.000000
      length 6.996006
      axis 0.0 0.0 -90.0 xyz
      dof rx ry rz
   end
   begin
      id 10
      name LeftArm
      direction 1.000000 0.000000 0.000000
      length 10.209302
      axis 0.0 0.0 -90.0 xyz
      dof rx ry rz
   end
   begin
      id 11
      name LeftForeArm
      direction 1.000000 0.000000 0.000000
      length 8.563163
      axis 0.0 0.0 -90.0 xyz
      dof ry rz rx
   end
   begin
      id 12
      name LeftHand
      direction 0.000000 0.000000 0.000000
      length 0.000000
      axis 0.0 0.0 -90.0 xyz
      dof rx ry rz
   end
   begin
      id 13
      name LeftHand_dum1
      direction 0.000000 0.000000 0.000000
      length 0.000000
      axis 0.0 0.0 -90.0 xyz
   end
   begin
      id 14
      name LeftHand_dum2
      direction 1.000000 0.000000 0.000000
      length 3.937000
      axis 0.0 0.0 -90.0 xyz
   end
   begin
      id 15
      name LeftHandThumb1
      direction 0.000000 0.000000 1.000000
      length 3.937000
      axis 0.0 0.0 -90.0 xyz
      dof rx rz ry
   end
   begin
      id 16
      name RightShoulder
      direction -1.000000 0.000000 0.000000
      length 6.996006
      axis 0.0 0.0 90.0 xyz
      dof rx ry rz
   end
   begin
      id 17
      name RightArm
      direction -1.000000 0.000000 0.000000
      length 10.209302
      axis 0.0 0.0 90.0 xyz
      dof rx ry rz
   end
   begin
      id 18
      name RightForeArm
      direction -1.000000 0.000000 0.000000
      length 8.563163
      axis 0.0 0.0 90.0 xyz
      dof ry rz rx
   end
   begin
      id 19
      name RightHand
      direction 0.000000 0.000000 0.000000
      length 0.000000
      axis 0.0 0.0 90.0 xyz
      dof rx ry rz
   end
   begin
      id 20
      name RightHand_dum1
      direction 0.000000 0.000000 0.000000
      length 0.000000
      axis 0.0 0.0 90.0 xyz
   end
   begin
      id 21
      name RightHand_dum2
      direction -1.000000 0.000000 0.000000
      length 3.937000
      axis 0.0 0.0 90.0 xyz
   end
   begin
      id 22
      name RightHandThumb1
      direction 0.000000 0.000000 1.000000
      length 3.937000
      axis 0.0 0.0 90.0 xyz
      dof rx rz ry
   end
   begin
      id 23
      name LeftUpLeg
      direction 0.000000 -1.000000 0.000000
      length 16.346831
      axis 0.0 0.0 0.0 xyz
      dof rx ry rz
   end
   begin
      id 24
      name LeftLeg
      direction 0.000000 -1.000000 0.000000
      length 13.959795
      axis 0.0 0.0 0.0 xyz
      dof rx ry rz
   end
   begin
      id 25
      name LeftFoot
      direction 0.000000 -0.258819 0.965926
      length 5.165550
      axis 15.0 0.0 0.0 xyz
      dof rx ry rz
   end
   begin
      id 26
      name LeftToeBase
      direction 0.000000 0.000000 1.000000
      length 2.952750
      axis 0.0 0.0 0.0 xyz
      dof rx ry rz
   end
   begin
      id 27
      name RightUpLeg
      direction 0.000000 -1.000000 0.000000
      length 16.346831
      axis 0.0 0.0 0.0 xyz
      dof rx ry rz
   end
   begin
      id 28
      name RightLeg
      direction 0.000000 -1.000000 0.000000
      length 13.959795
      axis 0.0 0.0 0.0 xyz
      dof rx ry rz
   end
   begin
      id 29
      name RightFoot
      direction 0.000000 -0.258819 0.965926
      length 5.165550
      axis 15.0 0.0 0.0 xyz
      dof rx ry rz
   end
   begin
      id 30
      name RightToeBase
      direction 0.000000 0.000000 1.000000
      length 2.952750
      axis 0.0 0.0 0.0 xyz
      dof rx ry rz
   end
:hierarchy
   begin
      root Spine_dum LeftUpLeg_dum RightUpLeg_dum
      Spine_dum Spine
      LeftUpLeg_dum LeftUpLeg
      RightUpLeg_dum RightUpLeg
      Spine Spine_dum1 Spine_dum2 Spine_dum3
      Spine_dum1 Head
      Spine_dum2 LeftShoulder
      Spine_dum3 RightShoulder
      LeftShoulder LeftArm
      LeftArm LeftForeArm
      LeftForeArm LeftHand
      LeftHand LeftHand_dum1 LeftHand_dum2
      LeftHand_dum1 LeftHandThumb1
      RightShoulder RightArm
      RightArm RightForeArm
      RightForeArm RightHand
      RightHand RightHand_dum1 RightHand_dum2
      RightHand_dum1 RightHandThumb1
      LeftUpLeg LeftLeg
      LeftLeg LeftFoot
      LeftFoot LeftToeBase
      RightUpLeg RightLeg
      RightLeg RightFoot
      RightFoot RightToeBase
   end

# File created by Blade
# Date/Time:  Tue Jan 27 18:55:50 2015
# Frame Rate: 120.000 fps
#------------------------------------------------------
:FULLY-SPECIFIED
:DEGREES
123
root -5.713657 31.722054 -5.333880 6.305695 7.763248 1.254214
Spine -3.430421 -5.290986 -0.882213
Head 11.786384 8.294229 1.476862
LeftShoulder -17.294460 15.692284 14.453711
LeftArm 9.900693 -41.544677 -58.637005
LeftForeArm -18.781898 -0.000000 53.707922
LeftHand -8.676142 -0.000000 15.656511
LeftHandThumb1 -26.253704 0.000000 33.147579
RightShoulder -12.407613 -4.527832 -13.651670
RightArm 4.606602 -12.548742 76.728100
RightForeArm -24.626425 0.000000 20.428844
RightHand -15.013299 -0.000000 12.387871
RightHandThumb1 -24.326973 -0.000000 -32.862282
LeftUpLeg -11.928107 -1.884264 -1.911633
LeftLeg 19.046827 -0.000000 -0.000000
LeftFoot -28.214187 22.805870 -28.266689
LeftToeBase 8.947817 -0.000000 -0.000000
RightUpLeg -0.218387 -4.755307 -0.367091
RightLeg -1.486055 -0.000000 0.000000
RightFoot -16.781119 -16.234826 9.839515
RightToeBase 5.003024 -0.000000 -0.000000
124
root -5.673719 31.726709 -5.334682 6.384349 7.826513 1.320908
Spine -3.549123 -5.385945 -0.870489
Head 11.672810 8.346622 1.484385
LeftShoulder -17.266462 15.790295 14.385498
LeftArm 9.544702 -41.726711 -58.877600
LeftForeArm -18.674616 -0.000000 54.553030
LeftHand -8.625134 0.000000 15.494727
LeftHandThumb1 -26.253704 0.000000 33.147579
RightShoulder -12.390178 -4.428255 -13.433505
RightArm 4.393855 -13.001510 77.709393
RightForeArm -24.308741 -0.000000 19.915751
RightHand -14.970938 -0.000000 12.253726
RightHandThumb1 -24.326973 -0.000000 -32.862282
LeftUpLeg -11.708594 -1.940532 -2.002642
LeftLeg 18.482658 -0.000000 -0.000000
LeftFoot -28.059568 22.698808 -28.234544
LeftToeBase 8.973775 -0.000000 -0.000000
RightUpLeg -0.358879 -4.857582 -0.492251
RightLeg -1.300313 -0.000000 0.000000
RightFoot -16.861819 -16.184670 9.873126
RightToeBase 4.982704 -0.000000 -0.000000
125
root -5.627335 31.733297 -5.333899 6.454950 7.871566 1.421615
Spine -3.663003 -5.481324 -0.879542
Head 11.573533 8.396594 1.453621
LeftShoulder -17.234465 15.849696 14.308251
LeftArm 9.064028 -41.818259 -59.012342
LeftForeArm -18.518163 -0.000000 55.420859
LeftHand -8.595942 -0.000000 15.471836
LeftHandThumb1 -26.253704 0.000000 33.147579
RightShoulder -12.343239 -4.335323 -13.245191
RightArm 4.176480 -13.327059 78.685282
RightForeArm -24.036198 -0.000000 19.459978
RightHand -15.017228 -0.000000 12.334934
RightHandThumb1 -24.326973 -0.000000 -32.862282
LeftUpLeg -11.479770 -2.093575 -2.146216
LeftLeg 17.915760 -0.000000 -0.000000
LeftFoot -27.956220 22.742332 -28.285896
LeftToeBase 8.961818 -0.000000 -0.000000
RightUpLeg -0.459912 -4.879454 -0.670974
RightLeg -1.165500 -0.000000 0.000000
RightFoot -16.922277 -16.177508 9.955475
RightToeBase 4.943192 -0.000000 -0.000000
126
root -5.585974 31.741016 -5.337603 6.515734 7.958555 1.536296
Spine -3.729886 -5.632767 -0.927910
Head 11.418066 8.444437 1.484167
LeftShoulder -17.235004 15.911515 14.235727
LeftArm 8.674589 -41.892401 -59.161793
LeftForeArm -18.487696 -0.000000 56.245129
LeftHand -8.658812 -0.000000 15.659144
LeftHandThumb1 -26.253704 0.000000 33.147579
RightShoulder -12.289370 -4.146181 -13.079547
RightArm 3.858475 -13.771859 79.692866
RightForeArm -23.506658 -0.000000 19.041853
RightHand -15.126385 -0.000000 12.085858
RightHandThumb1 -24.326973 -0.000000 -32.862282
LeftUpLeg -11.268919 -2.257494 -2.305519
LeftLeg 17.370739 -0.000000 -0.000000
LeftFoot -27.783465 22.845734 -28.235623
LeftToeBase 8.956476 -0.000000 -0.000000
RightUpLeg -0.559304 -4.913210 -0.846072
RightLeg -1.020376 -0.000000 0.000000
RightFoot -17.014393 -16.225218 10.046807
RightToeBase 4.986987 -0.000000 -0.000000
127
root -5.540265 31.749703 -5.340295 6.576551 8.038254 1.652042
Spine -3.797526 -5.750367 -0.957617
Head 11.243898 8.459558 1.483798
LeftShoulder -17.233983 15.945914 14.166777
LeftArm 8.335256 -41.971323 -59.392063
LeftForeArm -18.379980 -0.000000 57.050957
LeftHand -8.703352 -0.000000 15.847179
LeftHandThumb1 -26.253704 0.000000 33.147579
RightShoulder -12.264813 -3.953334 -12.945283
RightArm 3.497581 -13.966336 80.709573
RightForeArm -23.354754 -0.000000 18.674531
RightHand -14.995064 0.000000 12.079319
RightHandThumb1 -24.326973 -0.000000 -32.862282
LeftUpLeg -11.083708 -2.430123 -2.489846
LeftLeg 16.877681 -0.000000 -0.000000
LeftFoot -27.630553 23.052339 -28.130645
LeftToeBase 9.052025 -0.000000 -0.000000
RightUpLeg -0.666693 -4.953152 -1.030043
RightLeg -0.850603 -0.000000 0.000000
RightFoot -17.076878 -16.275037 10.093012
RightToeBase 4.915758 -0.000000 -0.000000
128
root -5.487872 31.758212 -5.338253 6.601735 8.120123 1.822783
Spine -3.835276 -5.856054 -1.048051
Head 11.111253 8.452682 1.466746
LeftShoulder -17.248766 16.029319 14.095861
LeftArm 8.121796 -42.078181 -59.710622
LeftForeArm -18.205847 -0.000000 57.810945
LeftHand -8.700081 0.000000 15.708770
LeftHandThumb1 -26.253704 0.000000 33.147579
RightShoulder -12.251881 -3.839488 -12.829160
RightArm 3.201704 -14.219972 81.677916
RightForeArm -23.059279 -0.000000 18.327450
RightHand -14.881431 -0.000000 12.113187
RightHandThumb1 -24.326973 -0.000000 -32.862282
LeftUpLeg -10.821977 -2.628016 -2.741816
LeftLeg 16.340458 -0.000000 -0.000000
LeftFoot -27.456020 23.280144 -28.031702
LeftToeBase 9.141490 -0.000000 -0.000000
RightUpLeg -0.852064 -5.461987 -1.265982
RightLeg -0.405247 -0.000000 0.000000
RightFoot -17.264260 -15.905787 10.048705
RightToeBase 4.929966 -0.000000 -0.000000
129
root -5.428699 31.768428 -5.325602 6.614914 8.130717 1.973760
Spine -3.915582 -5.869647 -1.098381
Head 11.045338 8.430619 1.411017
LeftShoulder -17.254080 16.160719 13.979720
LeftArm 7.924620 -42.122176 -59.991051
LeftForeArm -18.086835 -0.000000 58.563420
LeftHand -8.651685 -0.000000 15.873067
LeftHandThumb1 -26.253704 0.000000 33.147579
RightShoulder -12.213573 -3.744268 -12.744153
RightArm 2.832775 -14.327170 82.623895
RightForeArm -22.873677 0.000000 18.050016
RightHand -14.802553 -0.000000 12.163616
RightHandThumb1 -24.326973 -0.000000 -32.862282
LeftUpLeg -10.502746 -2.767731 -3.001616
LeftLeg 15.757528 -0.000000 -0.000000
LeftFoot -27.289670 23.555501 -27.896597
LeftToeBase 9.214695 -0.000000 -0.000000
RightUpLeg -0.934537 -5.594202 -1.513261
RightLeg -0.127442 -0.000000 0.000000
RightFoot -17.377310 -15.814068 10.103666
RightToeBase 4.829882 -0.000000 -0.000000
130
root -5.385013 31.775580 -5.326158 6.621881 8.241247 2.063817
Spine -3.930136 -5.940508 -1.126486
Head 10.898453 8.387381 1.431311
LeftShoulder -17.216048 16.227970 13.957445
LeftArm 7.756491 -42.218584 -60.349103
LeftForeArm -17.865306 0.000000 59.278223
LeftHand -8.637210 -0.000000 15.645767
LeftHandThumb1 -26.253704 0.000000 33.147579
RightShoulder -12.178594 -3.617024 -12.657819
RightArm 2.457210 -14.354150 83.570309
RightForeArm -22.598680 -0.000000 17.800406
RightHand -14.702640 -0.000000 12.284410
RightHandThumb1 -24.326973 -0.000000 -32.862282
LeftUpLeg -10.293123 -2.933591 -3.162048
LeftLeg 15.336078 -0.000000 -0.000000
LeftFoot -27.138971 23.727022 -27.762051
LeftToeBase 9.237324 -0.000000 -0.000000
RightUpLeg -0.998109 -5.551786 -1.667358
RightLeg 0.079894 -0.000000 -0.000000
RightFoot -17.502165 -15.974545 10.212218
RightToeBase 4.844183 -0.000000 -0.000000
131
root -5.343078 31.782597 -5.332377 6.618167 8.427161 2.163247
Spine -3.896574 -6.093775 -1.163288
Head 10.710883 8.351238 1.468008
LeftShoulder -17.208883 16.272339 13.946575
LeftArm 7.625946 -42.219234 -60.695598
LeftForeArm -17.507028 -0.000000 59.941984
LeftHand -8.701040 -0.000000 15.718122
LeftHandThumb1 -26.253704 0.000000 33.147579
RightShoulder -12.156419 -3.537228 -12.577874
RightArm 2.192799 -14.395501 84.487428
RightForeArm -22.431229 -0.000000 17.514151
RightHand -14.511681 -0.000000 12.273911
RightHandThumb1 -24.326973 -0.000000 -32.862282
LeftUpLeg -10.104670 -3.114239 -3.314956
LeftLeg 14.961194 -0.000000 -0.000000
LeftFoot -26.963853 23.757301 -27.677273
LeftToeBase 9.313145 -0.000000 -0.000000
RightUpLeg -1.064785 -5.699300 -1.813892
RightLeg 0.315891 -0.000000 -0.000000
RightFoot -17.611880 -16.056065 10.242802
RightToeBase 4.810794 -0.000000 -0.000000
132
root -5.300859 31.790030 -5.330578 6.601648 8.530892 2.243506
Spine -3.875379 -6.155878 -1.201827
Head 10.538639 8.311617 1.495813
LeftShoulder -17.228663 16.301492 13.927145
LeftArm 7.524414 -42.207525 -61.011953
LeftForeArm -17.308815 -0.000000 60.555695
LeftHand -8.633720 -0.000000 15.746532
LeftHandThumb1 -26.253704 0.000000 33.147579
RightShoulder -12.134288 -3.486575 -12.485177
RightArm 1.915395 -14.429754 85.332263
RightForeArm -22.310810 -0.000000 17.327174
RightHand -14.462500 -0.000000 12.588874
RightHandThumb1 -24.326973 -0.000000 -32.862282
LeftUpLeg -9.874551 -3.277373 -3.457097
LeftLeg 14.558249 -0.000000 -0.000000
LeftFoot -26.820519 23.890422 -27.580249
LeftToeBase 9.350524 -0.000000 -0.000000
RightUpLeg -1.100376 -5.695542 -1.954238
RightLeg 0.519816 -0.000000 -0.000000
RightFoot -17.722620 -16.183693 10.338570
RightToeBase 4.818053 -0.000000 -0.000000
133
root -5.250097 31.795698 -5.329687 6.586794 8.640998 2.310172
Spine -3.881648 -6.215968 -1.166143
Head 10.414465 8.274086 1.442476
LeftShoulder -17.244426 16.372306 13.864980
LeftArm 7.481216 -42.159358 -61.355559
LeftForeArm -17.140652 -0.000000 61.129860
LeftHand -8.648216 -0.000000 15.752009
LeftHandThumb1 -26.253704 0.000000 33.147579
RightShoulder -12.063404 -3.444579 -12.498719
RightArm 1.640617 -14.405767 86.191317
RightForeArm -22.173651 -0.000000 17.081478
RightHand -14.302313 -0.000000 12.560217
RightHandThumb1 -24.326973 -0.000000 -32.862282
LeftUpLeg -9.664395 -3.388069 -3.608424
LeftLeg 14.194318 -0.000000 -0.000000
LeftFoot -26.672285 23.977897 -27.432043
LeftToeBase 9.386373 -0.000000 -0.000000
RightUpLeg -1.157235 -5.787431 -2.094524
RightLeg 0.761085 -0.000000 -0.000000
RightFoot -17.827854 -16.229331 10.404805
RightToeBase 4.776308 -0.000000 -0.000000
134
root -5.202771 31.798927 -5.335364 6.583121 8.756209 2.360927
Spine -3.877202 -6.255614 -1.126806
Head 10.260175 8.202101 1.409107
LeftShoulder -17.239980 16.375097 13.846585
LeftArm 7.443353 -42.098658 -61.696360
LeftForeArm -16.944712 -0.000000 61.642445
LeftHand -8.632415 -0.000000 15.821728
LeftHandThumb1 -26.253704 0.000000 33.147579
RightShoulder -12.007658 -3.415561 -12.497033
RightArm 1.394033 -14.341692 87.007786
RightForeArm -22.129098 -0.000000 16.896583
RightHand -14.148758 -0.000000 12.692089
RightHandThumb1 -24.326973 -0.000000 -32.862282
LeftUpLeg -9.514673 -3.498790 -3.734206
LeftLeg 13.901047 -0.000000 -0.000000
LeftFoot -26.546235 24.043313 -27.300371
LeftToeBase 9.417409 -0.000000 -0.000000
RightUpLeg -1.255593 -5.856266 -2.204038
RightLeg 1.026999 -0.000000 -0.000000
RightFoot -17.992726 -16.324027 10.550721
RightToeBase 4.803259 -0.000000 -0.000000
